Coordinates
version=1
nRows=34
nColumns=38
inDegrees=no

Units are S.I. units (second, meters, Newtons, ...)
If the header above contains a line with 'inDegrees', this indicates whether rotational values are in degrees (yes) or radians (no).

endheader
time	pelvis_tilt	pelvis_list	pelvis_rotation	pelvis_tx	pelvis_ty	pelvis_tz	hip_flexion_r	hip_adduction_r	hip_rotation_r	knee_angle_r	ankle_angle_r	subtalar_angle_r	mtp_angle_r	hip_flexion_l	hip_adduction_l	hip_rotation_l	knee_angle_l	ankle_angle_l	subtalar_angle_l	mtp_angle_l	lumbar_extension	lumbar_bending	lumbar_rotation	arm_flex_r	arm_add_r	arm_rot_r	elbow_flex_r	pro_sup_r	wrist_flex_r	wrist_dev_r	arm_flex_l	arm_add_l	arm_rot_l	elbow_flex_l	pro_sup_l	wrist_flex_l	wrist_dev_l
0	2.89398	1.3331	-1.25406	0.636699	-0.192474	0.9511	-0.294844	-0.00164968	0.0627482	0.159574	-0.280014	0	0	-0.271243	-0.116182	-0.0402239	0.278727	-0.145385	0	0	-0.249806	0.0929025	-0.126407	0.188314	-0.305022	0.584106	0.676447	1.49905	0	0	-0.00355916	-0.313155	0.442762	0.798772	1.5708	0	0
0.01	2.88764	1.33937	-1.24636	0.636745	-0.19202	0.95099	-0.289207	-0.000297246	0.0557099	0.154084	-0.286033	0	0	-0.266082	-0.115574	-0.0361464	0.273701	-0.14822	0	0	-0.240925	0.0924738	-0.129873	0.195109	-0.298057	0.594254	0.657017	1.49648	0	0	-0.00166376	-0.313056	0.448815	0.790369	1.5708	0	0
0.02	2.88596	1.34088	-1.24381	0.636741	-0.191978	0.950887	-0.287783	-0.000153942	0.055517	0.153543	-0.287253	0	0	-0.264471	-0.115677	-0.0353407	0.273086	-0.148713	0	0	-0.239382	0.0930032	-0.13101	0.195055	-0.298534	0.596409	0.657319	1.49439	0	0	-0.00309996	-0.312854	0.445547	0.791544	1.5708	0	0
0.03	2.88475	1.34227	-1.2417	0.636729	-0.191968	0.950795	-0.286408	-3.17124e-05	0.0558464	0.153566	-0.28749	0	0	-0.262806	-0.115762	-0.0347918	0.27291	-0.149053	0	0	-0.238144	0.0934647	-0.132147	0.194885	-0.298703	0.597193	0.6575	1.49225	0	0	-0.00445453	-0.312779	0.44232	0.792914	1.5708	0	0
0.04	2.88354	1.34385	-1.23943	0.636686	-0.191945	0.950688	-0.284901	-1.76635e-05	0.0566198	0.153508	-0.287371	0	0	-0.260342	-0.115957	-0.0349057	0.273987	-0.149066	0	0	-0.236697	0.0939991	-0.133434	0.194577	-0.298953	0.597654	0.657747	1.49018	0	0	-0.00592858	-0.312254	0.43794	0.794404	1.5708	0	0
0.05	2.8825	1.34527	-1.2373	0.636639	-0.191909	0.950594	-0.283779	8.83152e-05	0.0575481	0.153075	-0.287169	0	0	-0.25819	-0.116137	-0.0349609	0.274788	-0.148952	0	0	-0.235379	0.0945409	-0.134832	0.194259	-0.299145	0.598011	0.657868	1.48833	0	0	-0.00740763	-0.311477	0.433226	0.795647	1.5708	0	0
0.06	2.88065	1.34661	-1.23467	0.636641	-0.191901	0.950515	-0.282347	0.000346799	0.057438	0.152949	-0.287092	0	0	-0.255999	-0.11654	-0.0354455	0.275901	-0.148814	0	0	-0.234162	0.0952462	-0.135924	0.193808	-0.299557	0.598195	0.658306	1.48667	0	0	-0.00884727	-0.310836	0.428735	0.79699	1.5708	0	0
0.07	2.87903	1.3482	-1.23227	0.636629	-0.191863	0.950436	-0.280643	0.000404248	0.0574881	0.152903	-0.287051	0	0	-0.254096	-0.116594	-0.0352621	0.275887	-0.148802	0	0	-0.232562	0.0958281	-0.136984	0.193238	-0.299843	0.598176	0.658331	1.4852	0	0	-0.0103912	-0.310565	0.42505	0.798624	1.5708	0	0
0.08	2.87709	1.34977	-1.22981	0.636643	-0.191828	0.950372	-0.278726	0.000456223	0.0574868	0.153462	-0.286792	0	0	-0.25218	-0.116701	-0.0354554	0.276092	-0.148735	0	0	-0.231015	0.0964189	-0.137691	0.192758	-0.300075	0.598175	0.657965	1.48381	0	0	-0.0117402	-0.3105	0.422288	0.800166	1.5708	0	0
0.09	2.87596	1.35107	-1.22817	0.636648	-0.191798	0.95032	-0.277268	0.000620601	0.0578366	0.154023	-0.286231	0	0	-0.250958	-0.116591	-0.035319	0.275481	-0.148722	0	0	-0.229884	0.0968347	-0.138309	0.192317	-0.300355	0.598174	0.657518	1.48243	0	0	-0.0125293	-0.310251	0.419805	0.80117	1.5708	0	0
0.1	2.87546	1.35197	-1.22718	0.636627	-0.191767	0.950283	-0.276451	0.000917903	0.0584142	0.154319	-0.285639	0	0	-0.25015	-0.116468	-0.0353765	0.274893	-0.148756	0	0	-0.22918	0.0972537	-0.138894	0.191776	-0.300848	0.598028	0.657268	1.48121	0	0	-0.0131592	-0.309949	0.417384	0.80218	1.5708	0	0
0.11	2.87465	1.35296	-1.22599	0.636607	-0.191729	0.950242	-0.275406	0.000678915	0.0587663	0.154312	-0.285354	0	0	-0.249505	-0.116269	-0.0349831	0.273729	-0.149002	0	0	-0.228284	0.0976867	-0.139391	0.191125	-0.301286	0.597611	0.656847	1.48007	0	0	-0.0140367	-0.309733	0.414773	0.803449	1.5708	0	0
0.12	2.87416	1.354	-1.22507	0.636612	-0.191677	0.950193	-0.274415	0.000437467	0.0587606	0.154203	-0.28522	0	0	-0.248568	-0.116132	-0.034781	0.27324	-0.149316	0	0	-0.227342	0.0979435	-0.13982	0.190238	-0.301787	0.59713	0.656594	1.47911	0	0	-0.0147664	-0.309601	0.412217	0.804638	1.5708	0	0
0.13	2.87368	1.35514	-1.22429	0.63663	-0.191623	0.950142	-0.273282	0.000264246	0.0589409	0.15419	-0.285093	0	0	-0.247522	-0.115893	-0.0344027	0.272857	-0.149675	0	0	-0.226283	0.0981102	-0.140119	0.189348	-0.302287	0.596746	0.656232	1.47827	0	0	-0.0154338	-0.309539	0.409888	0.806017	1.5708	0	0
0.14	2.87298	1.35614	-1.2233	0.63664	-0.191577	0.950089	-0.27217	0.000162415	0.0590686	0.154311	-0.284957	0	0	-0.246328	-0.115829	-0.0343497	0.273078	-0.149914	0	0	-0.225337	0.0983579	-0.140416	0.188625	-0.302806	0.596379	0.655724	1.47737	0	0	-0.0161237	-0.309553	0.408062	0.807452	1.5708	0	0
0.15	2.87186	1.35711	-1.22177	0.636631	-0.191513	0.950033	-0.27118	0.000174344	0.0589583	0.154335	-0.284822	0	0	-0.245411	-0.115835	-0.0339147	0.272669	-0.150089	0	0	-0.224212	0.0987499	-0.140976	0.187975	-0.303117	0.595817	0.654842	1.47641	0	0	-0.0168586	-0.309399	0.406299	0.808352	1.5708	0	0
0.16	2.8707	1.35787	-1.22013	0.636604	-0.191443	0.949994	-0.270622	0.000475453	0.0588245	0.154238	-0.284575	0	0	-0.244639	-0.115916	-0.0334262	0.272288	-0.150169	0	0	-0.223256	0.0992569	-0.141643	0.187178	-0.303615	0.595471	0.654337	1.47574	0	0	-0.0173705	-0.309331	0.405113	0.808877	1.5708	0	0
0.17	2.87012	1.35845	-1.21914	0.636593	-0.191388	0.949969	-0.270199	0.000970065	0.0587908	0.154441	-0.284018	0	0	-0.244174	-0.115883	-0.0326717	0.271693	-0.150182	0	0	-0.222592	0.0996466	-0.142153	0.186493	-0.304171	0.595482	0.653882	1.47534	0	0	-0.0176975	-0.309573	0.404605	0.809517	1.5708	0	0
0.18	2.87024	1.35882	-1.219	0.636586	-0.191355	0.949963	-0.269778	0.00106591	0.0588489	0.154775	-0.283592	0	0	-0.243679	-0.115833	-0.0323932	0.271991	-0.15018	0	0	-0.222301	0.0999562	-0.142393	0.185946	-0.304833	0.595574	0.65353	1.47501	0	0	-0.0179911	-0.310099	0.404685	0.810323	1.5708	0	0
0.19	2.87027	1.35929	-1.21887	0.636567	-0.191325	0.949942	-0.269151	0.000858022	0.058985	0.155059	-0.28332	0	0	-0.243352	-0.115658	-0.0317909	0.271787	-0.150222	0	0	-0.221884	0.100235	-0.142629	0.185389	-0.305322	0.595092	0.653111	1.47444	0	0	-0.0182906	-0.310355	0.404255	0.811004	1.5708	0	0
0.2	2.87006	1.35961	-1.21845	0.63652	-0.191289	0.949911	-0.268905	0.000707813	0.0587614	0.155058	-0.283215	0	0	-0.243029	-0.115604	-0.0315337	0.271701	-0.150263	0	0	-0.221546	0.10053	-0.142991	0.184722	-0.305906	0.594382	0.653002	1.47381	0	0	-0.0184123	-0.31041	0.403638	0.81159	1.5708	0	0
0.21	2.87014	1.35981	-1.21833	0.636475	-0.191255	0.949889	-0.268813	0.000282401	0.0585758	0.1548	-0.283351	0	0	-0.242977	-0.115485	-0.0311647	0.27146	-0.150438	0	0	-0.221385	0.10083	-0.143233	0.184053	-0.306544	0.593862	0.653028	1.47333	0	0	-0.0183304	-0.310262	0.402774	0.811943	1.5708	0	0
0.22	2.8708	1.35984	-1.21891	0.63645	-0.191213	0.94989	-0.268988	5.24254e-06	0.0585445	0.15449	-0.283528	0	0	-0.242972	-0.115324	-0.0312376	0.271515	-0.15053	0	0	-0.221385	0.101121	-0.143385	0.18343	-0.307265	0.593572	0.653208	1.47296	0	0	-0.0182691	-0.310221	0.402225	0.812031	1.5708	0	0
0.23	2.87111	1.36001	-1.21919	0.636438	-0.191164	0.949899	-0.268997	-0.000104579	0.0585204	0.154231	-0.283686	0	0	-0.243223	-0.115112	-0.0309913	0.270495	-0.150649	0	0	-0.221275	0.101391	-0.143478	0.182816	-0.3079	0.59318	0.653347	1.47254	0	0	-0.018251	-0.310337	0.402023	0.812066	1.5708	0	0
0.24	2.87095	1.36034	-1.21901	0.636416	-0.1911	0.949895	-0.268719	-0.000183162	0.0582211	0.154144	-0.283804	0	0	-0.243056	-0.11495	-0.0306465	0.270124	-0.150883	0	0	-0.220957	0.101691	-0.143661	0.182185	-0.308605	0.592939	0.653628	1.4722	0	0	-0.0184122	-0.310272	0.401473	0.811906	1.5708	0	0
0.25	2.8705	1.36088	-1.21858	0.636378	-0.19101	0.949864	-0.26812	-0.000344072	0.0579076	0.154264	-0.283919	0	0	-0.242861	-0.114703	-0.0300327	0.269515	-0.151221	0	0	-0.220252	0.101917	-0.143988	0.181614	-0.309184	0.593006	0.653619	1.47209	0	0	-0.0188123	-0.310129	0.400716	0.811647	1.5708	0	0
0.26	2.87024	1.36133	-1.21834	0.636358	-0.19093	0.949827	-0.267584	-0.000472795	0.0576729	0.154473	-0.283847	0	0	-0.242314	-0.114649	-0.0304668	0.270023	-0.151319	0	0	-0.21957	0.102165	-0.144352	0.181079	-0.309743	0.593152	0.653607	1.47194	0	0	-0.0191824	-0.309963	0.399925	0.811243	1.5708	0	0
0.27	2.8698	1.36165	-1.21791	0.636354	-0.190869	0.949818	-0.267217	-0.000457411	0.0574861	0.154662	-0.283737	0	0	-0.242487	-0.114537	-0.03012	0.268948	-0.151562	0	0	-0.219069	0.102501	-0.144668	0.1807	-0.309972	0.592737	0.653065	1.47155	0	0	-0.0193404	-0.309759	0.399228	0.810629	1.5708	0	0
0.28	2.86932	1.36185	-1.21745	0.636354	-0.190824	0.949808	-0.266856	-0.00044417	0.0572416	0.155065	-0.283657	0	0	-0.242363	-0.114559	-0.0302998	0.26885	-0.151674	0	0	-0.21874	0.102914	-0.144857	0.180362	-0.310279	0.592288	0.652688	1.47123	0	0	-0.0194274	-0.309526	0.398542	0.810047	1.5708	0	0
0.29	2.86851	1.36209	-1.21672	0.636368	-0.190796	0.949792	-0.266265	-0.000399191	0.0571616	0.155773	-0.283531	0	0	-0.242685	-0.114506	-0.029647	0.267472	-0.151893	0	0	-0.218529	0.103283	-0.144863	0.179998	-0.310713	0.591831	0.652676	1.47094	0	0	-0.0195099	-0.309523	0.398133	0.809752	1.5708	0	0
0.3	2.86769	1.36227	-1.21597	0.636381	-0.19075	0.949776	-0.265782	-0.000340621	0.0571019	0.156323	-0.28353	0	0	-0.24245	-0.114686	-0.0298829	0.26759	-0.151961	0	0	-0.218283	0.103635	-0.144946	0.179483	-0.31134	0.591559	0.653146	1.47078	0	0	-0.0197655	-0.30967	0.398029	0.809599	1.5708	0	0
0.31	2.86738	1.36268	-1.21575	0.636391	-0.190693	0.949755	-0.265074	-0.000465621	0.0571121	0.157002	-0.283392	0	0	-0.242802	-0.114455	-0.0289534	0.265868	-0.152447	0	0	-0.217724	0.103793	-0.145097	0.179057	-0.311656	0.591123	0.653182	1.47078	0	0	-0.0199111	-0.309659	0.397803	0.809286	1.5708	0	0
0.32	2.86762	1.36294	-1.21603	0.636398	-0.190632	0.949746	-0.264726	-0.000364097	0.0570225	0.157567	-0.282925	0	0	-0.242578	-0.114329	-0.0291546	0.265908	-0.152749	0	0	-0.217401	0.103891	-0.145271	0.178744	-0.311925	0.59077	0.653169	1.47103	0	0	-0.0201731	-0.309919	0.398005	0.80926	1.5708	0	0
0.33	2.86782	1.36315	-1.21628	0.636412	-0.190572	0.949756	-0.26454	5.60007e-05	0.0570276	0.158113	-0.282294	0	0	-0.243038	-0.11412	-0.0287639	0.264411	-0.153088	0	0	-0.217298	0.10401	-0.145297	0.178478	-0.312188	0.590369	0.653205	1.47125	0	0	-0.020395	-0.310121	0.397925	0.809378	1.5708	0	0
